<svg width="16" height="16" viewBox="0 0 16 16" fill="none" xmlns="http://www.w3.org/2000/svg">
<path d="M16 5.26331C16 2.72875 13.938 0.666748 11.4034 0.666748H4.59656C2.062 0.666779 0 2.72878 0 5.26334C0 6.01178 0.608906 6.62069 1.35734 6.62069H2.65297L1.71491 8.745C1.38341 9.49575 1.21531 10.2925 1.21531 11.1132V11.9837C1.21531 12.9207 1.97769 13.6831 2.91478 13.6831H13.085C14.0221 13.6831 14.7845 12.9207 14.7845 11.9837V11.1132C14.7845 10.2925 14.6164 9.49575 14.2848 8.745L13.3468 6.62069H14.6426C15.3911 6.62065 16 6.01178 16 5.26331ZM4.59656 1.71475H11.4034V1.71478C12.8795 1.71478 14.1478 2.62078 14.6818 3.90578H11.6619C11.4038 3.63862 11.0422 3.472 10.6423 3.472H5.35769C4.95703 3.472 4.59491 3.63928 4.33669 3.90728C4.32663 3.90672 4.31666 3.90575 4.30647 3.90575H1.31819C1.85225 2.62072 3.12053 1.71475 4.59656 1.71475ZM1.35734 5.57262C1.18678 5.57262 1.04803 5.4339 1.04803 5.26331C1.04803 5.15903 1.05281 5.05584 1.06169 4.95381H3.93922V5.35828C3.93922 5.47647 3.84303 5.57259 3.72487 5.57259H1.35734V5.57262ZM13.7365 11.1131V11.9836C13.7365 12.3427 13.4443 12.635 13.085 12.635H2.91478C2.55559 12.635 2.26334 12.3428 2.26334 11.9836V11.1131C2.26334 10.4392 2.40137 9.78481 2.67362 9.16828L3.79972 6.61825C4.46109 6.57937 4.98728 6.02922 4.98728 5.35831V4.89056C4.98728 4.68628 5.15347 4.52009 5.35772 4.52009H10.6423C10.8466 4.52009 11.0127 4.68628 11.0127 4.89056V5.35831C11.0127 6.02915 11.5388 6.57928 12.2 6.61825L13.3261 9.16834C13.5984 9.78481 13.7365 10.4391 13.7365 11.1131ZM12.2752 5.57265V5.57262C12.157 5.57262 12.0608 5.4765 12.0608 5.35831V4.95384H14.9383C14.9472 5.05587 14.952 5.15906 14.952 5.26337C14.952 5.43394 14.8133 5.57269 14.6427 5.57269H12.2752V5.57265Z" fill="white"/>
<path d="M6.17014 8.55769C6.49033 8.55769 6.74989 8.29813 6.74989 7.97794C6.74989 7.65776 6.49033 7.39819 6.17014 7.39819C5.84996 7.39819 5.59039 7.65776 5.59039 7.97794C5.59039 8.29813 5.84996 8.55769 6.17014 8.55769Z" fill="white"/>
<path d="M7.99997 8.55769C8.32016 8.55769 8.57972 8.29813 8.57972 7.97794C8.57972 7.65776 8.32016 7.39819 7.99997 7.39819C7.67979 7.39819 7.42023 7.65776 7.42023 7.97794C7.42023 8.29813 7.67979 8.55769 7.99997 8.55769Z" fill="white"/>
<path d="M9.82987 8.55769C10.1501 8.55769 10.4096 8.29813 10.4096 7.97794C10.4096 7.65776 10.1501 7.39819 9.82987 7.39819C9.50969 7.39819 9.25012 7.65776 9.25012 7.97794C9.25012 8.29813 9.50969 8.55769 9.82987 8.55769Z" fill="white"/>
<path d="M6.17014 10.3199C6.49033 10.3199 6.74989 10.0603 6.74989 9.74015C6.74989 9.41996 6.49033 9.1604 6.17014 9.1604C5.84996 9.1604 5.59039 9.41996 5.59039 9.74015C5.59039 10.0603 5.84996 10.3199 6.17014 10.3199Z" fill="white"/>
<path d="M7.99997 10.3199C8.32016 10.3199 8.57972 10.0603 8.57972 9.74015C8.57972 9.41996 8.32016 9.1604 7.99997 9.1604C7.67979 9.1604 7.42023 9.41996 7.42023 9.74015C7.42023 10.0603 7.67979 10.3199 7.99997 10.3199Z" fill="white"/>
<path d="M9.82987 10.3199C10.1501 10.3199 10.4096 10.0603 10.4096 9.74015C10.4096 9.41996 10.1501 9.1604 9.82987 9.1604C9.50969 9.1604 9.25012 9.41996 9.25012 9.74015C9.25012 10.0603 9.50969 10.3199 9.82987 10.3199Z" fill="white"/>
<path d="M6.17014 12.0819C6.49033 12.0819 6.74989 11.8223 6.74989 11.5021C6.74989 11.1819 6.49033 10.9224 6.17014 10.9224C5.84996 10.9224 5.59039 11.1819 5.59039 11.5021C5.59039 11.8223 5.84996 12.0819 6.17014 12.0819Z" fill="white"/>
<path d="M7.99997 12.0819C8.32016 12.0819 8.57972 11.8223 8.57972 11.5021C8.57972 11.1819 8.32016 10.9224 7.99997 10.9224C7.67979 10.9224 7.42023 11.1819 7.42023 11.5021C7.42023 11.8223 7.67979 12.0819 7.99997 12.0819Z" fill="white"/>
<path d="M9.82987 12.0819C10.1501 12.0819 10.4096 11.8223 10.4096 11.5021C10.4096 11.1819 10.1501 10.9224 9.82987 10.9224C9.50969 10.9224 9.25012 11.1819 9.25012 11.5021C9.25012 11.8223 9.50969 12.0819 9.82987 12.0819Z" fill="white"/>
</svg>
